HIERARCHY
ROOT RootJoint
{
    OFFSET   0.000000   0.000000   0.000000
    CHANNELS 6 Xposition Yposition Zposition Xrotation Yrotation Zrotation
    JOINT pelvis_lowerback
    {
        OFFSET   0.000000   0.093605   0.000000
        CHANNELS 3 Xrotation Yrotation Zrotation
        JOINT lowerback_torso
        {
            OFFSET   0.000000   0.100000   0.000000
            CHANNELS 3 Xrotation Yrotation Zrotation
            JOINT torso_head
            {
                OFFSET   0.000000   0.282350   0.000000
                CHANNELS 3 Xrotation Yrotation Zrotation
                End Site
                {
                    OFFSET   0.000000   0.192650   0.000000
                }
            }
            JOINT rTorso_Clavicle
            {
                OFFSET  -0.001000   0.157500   0.000000
                CHANNELS 3 Xrotation Yrotation Zrotation
                JOINT rShoulder
                {
                    OFFSET  -0.117647   0.000000   0.000000
                    CHANNELS 3 Xrotation Yrotation Zrotation
                    JOINT rElbow
                    {
                        OFFSET  -0.245000   0.000000   0.000000
                        CHANNELS 3 Xrotation Yrotation Zrotation
                        JOINT rWrist
                        {
                            OFFSET  -0.240000   0.000000   0.000000
                            CHANNELS 3 Xrotation Yrotation Zrotation
                            End Site
                            {
                                OFFSET  -0.116353  -0.002500   0.000000
                            }
                        }
                    }
                }
            }
            JOINT lTorso_Clavicle
            {
                OFFSET   0.001000   0.157500   0.000000
                CHANNELS 3 Xrotation Yrotation Zrotation
                JOINT lShoulder
                {
                    OFFSET   0.117647   0.000000   0.000000
                    CHANNELS 3 Xrotation Yrotation Zrotation
                    JOINT lElbow
                    {
                        OFFSET   0.245000   0.000000   0.000000
                        CHANNELS 3 Xrotation Yrotation Zrotation
                        JOINT lWrist
                        {
                            OFFSET   0.240000   0.000000   0.000000
                            CHANNELS 3 Xrotation Yrotation Zrotation
                            End Site
                            {
                                OFFSET   0.116353  -0.002500   0.000000
                            }
                        }
                    }
                }
            }
        }
    }
    JOINT rHip
    {
        OFFSET  -0.100000  -0.051395   0.000000
        CHANNELS 3 Xrotation Yrotation Zrotation
        JOINT rKnee
        {
            OFFSET   0.000000  -0.410000   0.000000
            CHANNELS 3 Xrotation Yrotation Zrotation
            JOINT rAnkle
            {
                OFFSET   0.000000  -0.390000   0.000000
                CHANNELS 3 Xrotation Yrotation Zrotation
                JOINT rToeJoint
                {
                    OFFSET   0.000000  -0.050000   0.130000
                    CHANNELS 3 Xrotation Yrotation Zrotation
                    End Site
                    {
                        OFFSET  -0.010000   0.002000   0.060000
                    }
                }
            }
        }
    }
    JOINT lHip
    {
        OFFSET   0.100000  -0.051395   0.000000
        CHANNELS 3 Xrotation Yrotation Zrotation
        JOINT lKnee
        {
            OFFSET   0.000000  -0.410000   0.000000
            CHANNELS 3 Xrotation Yrotation Zrotation
            JOINT lAnkle
            {
                OFFSET   0.000000  -0.390000   0.000000
                CHANNELS 3 Xrotation Yrotation Zrotation
                JOINT lToeJoint
                {
                    OFFSET   0.000000  -0.050000   0.130000
                    CHANNELS 3 Xrotation Yrotation Zrotation
                    End Site
                    {
                        OFFSET   0.010000   0.002000   0.060000
                    }
                }
            }
        }
    }
}
MOTION
Frames: 10
Frame Time:   0.008333
 -2.330204   0.720108   3.958649  -5.866067 -27.740535  -1.716237  11.192585  -3.760650  -1.928185   2.648017   2.785599  -1.707574  -3.453913 -14.290101   3.277825  -4.267936  17.616335  -4.567236 -26.736256  19.525229   8.434565   0.001327  23.059486  -0.001786  -1.826656   4.865704  -3.575654  10.360614   4.905520  -0.484803  28.609670 -19.030206 -45.056247 179.952536 -83.623728 179.952968  -0.996275  -9.969932  -2.831755 -51.070266  -8.724780 -35.507723  66.572821   0.000142   0.000490  -9.294877  -3.391797   7.620567  -0.845694  -0.000041   0.000030 -14.435631   5.652572  34.101907  56.319299   0.000058  -0.000713 -34.932968   6.428036   3.406867  -3.114125   0.000063  -0.000053
 -2.328758   0.720159   3.958542  -5.853248 -27.868488  -1.794066  11.251340  -3.806892  -1.968292   2.712504   2.770001  -1.629556  -3.360825 -14.300622   3.324228  -4.190804  17.595141  -4.506402 -26.698274  19.515615   8.423879   0.001118  23.093612  -0.001501  -1.822221   4.886199  -3.473590  10.404027   4.890639  -0.472654  28.763564 -19.184381 -44.939373 179.951217 -83.284463 179.951900  -0.986738  -9.968902  -2.856756 -51.100544  -8.762450 -35.437504  66.351012   0.000167   0.000580  -9.069518  -3.290741   7.629778  -0.849726  -0.000032   0.000024 -14.486821   5.606383  34.077693  56.517344   0.000021  -0.000877 -35.069686   6.523800   3.479023  -3.041062   0.000067  -0.000077
 -2.327273   0.720268   3.958424  -5.834786 -28.005782  -1.864280  11.309329  -3.855193  -2.000251   2.777663   2.754955  -1.550750  -3.268805 -14.310697   3.370895  -4.125717  17.576722  -4.462677 -26.666129  19.511792   8.404055   0.000940  23.126057  -0.001266  -1.820204   4.898843  -3.394671  10.451295   4.879926  -0.451178  28.915399 -19.327373 -44.825779 179.951266 -82.960836 179.952180  -0.976961  -9.967856  -2.916790 -51.131360  -8.796159 -35.362145  66.110109   0.000195   0.000670  -8.832303  -3.189014   7.633308  -0.852301  -0.000025   0.000019 -14.532035   5.567052  34.041210  56.698181  -0.000012  -0.001001 -35.203198   6.620059   3.551205  -2.973084   0.000072  -0.000100
 -2.325782   0.720415   3.958303  -5.812737 -28.143328  -1.927572  11.365434  -3.904646  -2.026874   2.840671   2.738130  -1.472566  -3.180603 -14.320224   3.415923  -4.068813  17.557460  -4.429423 -26.637415  19.509341   8.379075   0.000789  23.156717  -0.001070  -1.818233   4.911669  -3.332595  10.497905   4.872221  -0.423616  29.060946 -19.457558 -44.715850 179.952659 -82.658357 179.953762  -0.967402  -9.966981  -2.984287 -51.160827  -8.827329 -35.286630  65.859892   0.000217   0.000744  -8.591472  -3.090505   7.632061  -0.854613  -0.000020   0.000016 -14.574269   5.532090  33.997851  56.863541  -0.000037  -0.001076 -35.333003   6.707741   3.618493  -2.910793   0.000079  -0.000120
 -2.324309   0.720584   3.958183  -5.789279 -28.277668  -1.984956  11.418694  -3.954505  -2.049865   2.900553   2.719462  -1.396110  -3.096885 -14.329149   3.458707  -4.018114  17.536722  -4.402664 -26.611247  19.506611   8.351533   0.000662  23.185180  -0.000906  -1.816314   4.923478  -3.281897  10.542516   4.866711  -0.392029  29.199088 -19.576050 -44.609950 179.954983 -82.376298 179.956225  -0.958041  -9.966317  -3.049606 -51.187662  -8.855978 -35.212978  65.607126   0.000231   0.000796  -8.352208  -2.996606   7.627157  -0.856733  -0.000016   0.000012 -14.614317   5.500769  33.950399  57.016312  -0.000054  -0.001111 -35.458120   6.786859   3.680631  -2.853740   0.000084  -0.000135
 -2.322869   0.720763   3.958069  -5.766018 -28.407325  -2.037480  11.468498  -4.004121  -2.070121   2.956833   2.699349  -1.322051  -3.017878 -14.337477   3.499049  -3.972356  17.514709  -4.380148 -26.587129  19.503083   8.323016   0.000554  23.211382  -0.000768  -1.814534   4.933096  -3.239053  10.584665   4.862785  -0.358074  29.329511 -19.684228 -44.508500 179.957876 -82.113322 179.959213  -0.948887  -9.965841  -3.110273 -51.211312  -8.882156 -35.142100  65.356602   0.000237   0.000826  -8.117951  -2.907642   7.619542  -0.858686  -0.000013   0.000010 -14.652266   5.472750  33.900876  57.158753  -0.000065  -0.001114 -35.578062   6.858529   3.738004  -2.801466   0.000088  -0.000144
 -2.321474   0.720944   3.957961  -5.744016 -28.531626  -2.085984  11.514516  -4.052978  -2.088170   3.009253   2.678250  -1.250799  -2.943607 -14.345239   3.536943  -3.930704  17.491835  -4.360576 -26.564761  19.498702   8.294472   0.000463  23.235428  -0.000650  -1.812925   4.940187  -3.201874  10.624209   4.859963  -0.323041  29.452229 -19.783348 -44.411798 179.961069 -81.868115 179.962461  -0.939953  -9.965524  -3.165985 -51.231697  -8.905955 -35.074446  65.111747   0.000235   0.000836  -7.891003  -2.823546   7.610005  -0.860488  -0.000010   0.000008 -14.688033   5.447751  33.850755  57.292473  -0.000070  -0.001095 -35.692626   6.923830   3.791058  -2.753557   0.000090  -0.000148
 -2.320024   0.721079   3.957952  -5.713750 -28.682197  -2.080853  11.526217  -4.107091  -2.120910   3.073685   2.665831  -1.190556  -2.818734 -14.378287   3.594669  -3.912938  17.491615  -4.380887 -26.604383  19.536057   8.288940   0.000346  23.137407  -0.000451  -1.832537   4.957295  -3.132199  10.670923   4.860079  -0.244606  29.630131 -19.911133 -44.300351 179.962266 -81.595005 179.963873  -0.950311  -9.964588  -3.185938 -51.286444  -8.878219 -35.043527  64.885901   0.000241   0.000884  -7.669533  -2.712699   7.575122  -0.893271  -0.000014   0.000006 -14.706567   5.439829  33.723204  57.438872  -0.000084  -0.001155 -35.815327   7.055992   3.885832  -2.701821   0.000083  -0.000143
 -2.318595   0.721201   3.958003  -5.684321 -28.835978  -2.070466  11.535724  -4.159860  -2.136497   3.132980   2.655068  -1.125959  -2.697124 -14.410392   3.652627  -3.905190  17.495561  -4.418881 -26.645502  19.578336   8.270375   0.000279  23.045296  -0.000318  -1.854245   4.954169  -3.089617  10.720133   4.863196  -0.160080  29.803671 -20.027898 -44.190970 179.964063 -81.335877 179.965872  -0.960372  -9.963560  -3.231395 -51.339382  -8.841471 -35.015334  64.666889   0.000236   0.000917  -7.454881  -2.601872   7.540027  -0.924284  -0.000018   0.000005 -14.719515   5.441043  33.591773  57.582546  -0.000096  -0.001195 -35.940925   7.187676   3.976850  -2.654477   0.000077  -0.000136
 -2.317214   0.721316   3.958105  -5.655429 -28.986156  -2.057036  11.542741  -4.211103  -2.139390   3.185576   2.644245  -1.056619  -2.581927 -14.440397   3.709498  -3.903028  17.498690  -4.464170 -26.685906  19.620755   8.244864   0.000238  22.960306  -0.000234  -1.875005   4.953080  -3.068192  10.767688   4.868241  -0.074589  29.968634 -20.133387 -44.085143 179.966404 -81.094147 179.968372  -0.969731  -9.962578  -3.279819 -51.389310  -8.802935 -34.992267  64.455732   0.000224   0.000935  -7.248500  -2.499662   7.505095  -0.952796  -0.000021   0.000006 -14.729221   5.448976  33.461996  57.719343  -0.000101  -0.001205 -36.065834   7.311957   4.061550  -2.611076   0.000073  -0.000128
